<svg width="16" height="16" viewBox="0 0 16 16" fill="none" xmlns="http://www.w3.org/2000/svg">
<path d="M1.10374 0.696777C0.859618 1.33634 0.692118 2.02 0.625305 2.73046L3.86609 3.5989L3.7149 4.16303L0.593868 3.32668C0.593493 3.3565 0.592774 3.38621 0.592774 3.41606C0.592628 3.84784 0.629008 4.27885 0.701524 4.7045H3.64359V5.28846H0.825086C0.929319 5.70099 1.06825 6.10395 1.2404 6.49306L3.7149 5.83006L3.86609 6.39412L1.50234 7.02756C1.68891 7.37308 1.90201 7.70362 2.13971 8.01618L4.07512 6.89881L4.36709 7.40453L2.51646 8.47303C2.75957 8.74576 3.02204 9.00059 3.30184 9.23553L4.69965 7.83784L5.11259 8.25081L3.76712 9.59618C4.04789 9.79704 4.34219 9.97827 4.64793 10.1386L5.54587 8.58321L6.05168 8.87528L5.17709 10.39C5.57252 10.5593 5.98194 10.6939 6.40071 10.7922C6.43165 10.9037 6.46571 11.0142 6.50227 11.1232C6.11602 11.4355 5.74718 11.7636 5.40477 12.1147C5.2611 12.0451 5.10349 12.0091 4.94384 12.0093C4.35924 12.0093 3.88527 12.4832 3.88527 13.0679C3.88527 13.1215 3.88934 13.1742 3.89706 13.2257C3.96018 12.8659 4.27393 12.5924 4.65184 12.5924C4.74881 12.5924 4.84146 12.6106 4.92684 12.6434C4.61112 13.0216 4.32706 13.4272 4.08602 13.8694C4.52031 13.6336 4.95115 13.377 5.37196 13.0955C5.40277 13.1799 5.41848 13.2691 5.41837 13.3589C5.41837 13.7377 5.14349 14.0522 4.78237 14.1142C4.83581 14.1224 4.8898 14.1265 4.94387 14.1265C5.52856 14.1265 6.0024 13.6525 6.0024 13.0679C6.0024 12.9376 5.97874 12.8129 5.93571 12.6976C6.24924 12.4643 6.55518 12.2154 6.85009 11.9481C6.94315 12.1264 7.04393 12.2929 7.15165 12.4424L5.79134 15.1665C7.29968 15.8687 9.40696 15.8777 10.7248 15.1665L9.40827 12.5302C9.52459 12.3799 9.63359 12.2099 9.73409 12.0259C10.0021 12.2639 10.2787 12.4874 10.5617 12.698C10.5176 12.8163 10.495 12.9416 10.4951 13.0679C10.4951 13.6525 10.969 14.1264 11.5537 14.1264C11.6086 14.1264 11.6626 14.1223 11.7153 14.1142C11.3541 14.0522 11.0792 13.7378 11.0792 13.359C11.0792 13.2663 11.0956 13.1776 11.1258 13.0954C11.5465 13.3768 11.9772 13.6336 12.4115 13.8693C12.1706 13.4272 11.8871 13.0213 11.5716 12.6432C11.6591 12.6096 11.7521 12.5924 11.8458 12.5924C12.2236 12.5924 12.5374 12.8659 12.6005 13.2256C12.6082 13.1742 12.6123 13.1215 12.6123 13.0679C12.6123 12.4832 12.1383 12.0094 11.5537 12.0094C11.3944 12.0091 11.2371 12.045 11.0937 12.1142C10.781 11.7933 10.4456 11.4921 10.0954 11.2042C10.1562 11.0307 10.2097 10.8546 10.2557 10.6765C10.5017 10.6028 10.7437 10.5164 10.9807 10.4177L10.0902 8.87531L10.596 8.58325L11.5129 10.1712C11.8248 10.0116 12.124 9.83062 12.4089 9.63037L11.0293 8.25078L11.4423 7.83778L12.8775 9.27284C13.1633 9.03652 13.4313 8.77958 13.6796 8.50409L11.7749 7.4044L12.0668 6.89871L14.059 8.04884C14.3024 7.73244 14.5204 7.39734 14.7111 7.04665L12.2758 6.39406L12.427 5.83L14.9749 6.51271C15.1512 6.11752 15.2933 5.70791 15.3994 5.2884H12.4983V4.70443H15.5226C15.595 4.27878 15.6314 3.84777 15.6313 3.416C15.6313 3.37881 15.6306 3.34175 15.63 3.30465L12.4269 4.16303L12.2758 3.59884L15.5969 2.70896C15.5287 2.00615 15.3619 1.3299 15.1202 0.696777H15.1201C14.2914 1.99396 12.5078 3.00721 10.2837 3.41615C10.6796 3.90375 10.9225 4.52615 10.9225 5.20468C10.9225 6.17956 10.4311 7.03962 9.68487 7.54843C9.02018 7.16071 8.34402 6.646 8.26237 6.17925L8.81402 6.06018L8.74418 5.73668C9.23387 5.38246 9.80468 5.45112 10.414 5.73637L9.84202 4.47343L8.53256 4.75593L8.44362 4.34381V4.34365L5.91643 4.88906L6.55574 5.83487C6.28715 6.44981 6.47084 7.13737 6.72606 7.66487C5.87593 7.17831 5.30131 6.25868 5.30131 5.20456C5.30131 4.52603 5.54418 3.90362 5.94006 3.41606C3.71606 3.00721 1.93249 1.99396 1.10381 0.696777H1.10374ZM7.86781 4.8395C8.03168 4.83775 8.17968 4.95115 8.21562 5.11762C8.25662 5.30778 8.13571 5.49525 7.94549 5.53628C7.75527 5.57731 7.56784 5.4564 7.52681 5.26618C7.48574 5.07603 7.60668 4.8885 7.79687 4.84743C7.82062 4.84234 7.84437 4.83975 7.86781 4.8395Z" fill="#DE7EED"/>
</svg>
